# xmcd CD database file
#
# Track frame offsets:
#	150
#	7010
#	23770
#	47268
#	75923
#	99940
#	129243
#	146498
#	162143
#	183685
#	215930
#	238983
#	256928
#	283735
#
# Disc length: 4144 seconds
#
# Revision: 0
# Processed by: cddbd v1.4PL0 Copyright (c) Steve Scherf et al.
# Submitted via: CDex 1.50beta10
#
DISCID=b9102e0e
DTITLE=United States Air Force Band of the Rockies - Jazz From the Rockies
DYEAR=1900
DGENRE=Jazz
TTITLE0=Headin' for the 1990's
TTITLE1=Summertime
TTITLE2=Across the Line
TTITLE3=Pensativa
TTITLE4=Cherokee
TTITLE5=I Love You Porgy
TTITLE6=It's a Raggy Waltz
TTITLE7=I'll Remember April
TTITLE8=Taking a Chance
TTITLE9=Passages
TTITLE10=But It and Fry It
TTITLE11=Lost Love
TTITLE12=Night in Tunisia
TTITLE13=Wind Beneath My Wings
EXTD=
EXTT0=
EXTT1=
EXTT2=
EXTT3=
EXTT4=
EXTT5=
EXTT6=
EXTT7=
EXTT8=
EXTT9=
EXTT10=
EXTT11=
EXTT12=
EXTT13=
PLAYORDER=
